{
    "asset" : {
        "generator" : "Khronos glTF Blender I/O v1.6.16",
        "version" : "2.0"
    },
    "scene" : 0,
    "scenes" : [
        {
            "name" : "Scene",
            "nodes" : [
                0
            ]
        }
    ],
    "nodes" : [
        {
            "mesh" : 0,
            "name" : "Plane",
            "scale" : [
                10.728614807128906,
                10.728614807128906,
                10.728614807128906
            ]
        }
    ],
    "materials" : [
        {
            "doubleSided" : true,
            "name" : "Material.001",
            "pbrMetallicRoughness" : {
                "baseColorFactor" : [
                    0.6738460659980774,
                    0.6738460659980774,
                    0.6738460659980774,
                    1
                ],
                "metallicFactor" : 0,
                "roughnessFactor" : 0.5
            }
        },
        {
            "doubleSided" : true,
            "name" : "Material.002",
            "pbrMetallicRoughness" : {
                "baseColorFactor" : [
                    0.1237090528011322,
                    0.1237090528011322,
                    0.1237090528011322,
                    1
                ],
                "metallicFactor" : 0,
                "roughnessFactor" : 0.5
            }
        }
    ],
    "meshes" : [
        {
            "name" : "Plane",
            "primitives" : [
                {
                    "attributes" : {
                        "POSITION" : 0,
                        "NORMAL" : 1,
                        "TEXCOORD_0" : 2
                    },
                    "indices" : 3,
                    "material" : 0
                },
                {
                    "attributes" : {
                        "POSITION" : 4,
                        "NORMAL" : 5,
                        "TEXCOORD_0" : 6
                    },
                    "indices" : 7,
                    "material" : 1
                }
            ]
        }
    ],
    "accessors" : [
        {
            "bufferView" : 0,
            "componentType" : 5126,
            "count" : 483,
            "max" : [
                1,
                0.395783931016922,
                1
            ],
            "min" : [
                -1,
                -0.007696568965911865,
                -1
            ],
            "type" : "VEC3"
        },
        {
            "bufferView" : 1,
            "componentType" : 5126,
            "count" : 483,
            "type" : "VEC3"
        },
        {
            "bufferView" : 2,
            "componentType" : 5126,
            "count" : 483,
            "type" : "VEC2"
        },
        {
            "bufferView" : 3,
            "componentType" : 5123,
            "count" : 1068,
            "type" : "SCALAR"
        },
        {
            "bufferView" : 4,
            "componentType" : 5126,
            "count" : 438,
            "max" : [
                1,
                0.395783931016922,
                1
            ],
            "min" : [
                -1,
                -0.007696568965911865,
                -1
            ],
            "type" : "VEC3"
        },
        {
            "bufferView" : 5,
            "componentType" : 5126,
            "count" : 438,
            "type" : "VEC3"
        },
        {
            "bufferView" : 6,
            "componentType" : 5126,
            "count" : 438,
            "type" : "VEC2"
        },
        {
            "bufferView" : 7,
            "componentType" : 5123,
            "count" : 1356,
            "type" : "SCALAR"
        }
    ],
    "bufferViews" : [
        {
            "buffer" : 0,
            "byteLength" : 5796,
            "byteOffset" : 0
        },
        {
            "buffer" : 0,
            "byteLength" : 5796,
            "byteOffset" : 5796
        },
        {
            "buffer" : 0,
            "byteLength" : 3864,
            "byteOffset" : 11592
        },
        {
            "buffer" : 0,
            "byteLength" : 2136,
            "byteOffset" : 15456
        },
        {
            "buffer" : 0,
            "byteLength" : 5256,
            "byteOffset" : 17592
        },
        {
            "buffer" : 0,
            "byteLength" : 5256,
            "byteOffset" : 22848
        },
        {
            "buffer" : 0,
            "byteLength" : 3504,
            "byteOffset" : 28104
        },
        {
            "buffer" : 0,
            "byteLength" : 2712,
            "byteOffset" : 31608
        }
    ],
    "buffers" : [
        {
            "byteLength" : 34320,
            "uri" : "data:application/octet-stream;base64,"
        }
    ]
}
