{
    "asset" : {
        "generator" : "Khronos glTF Blender I/O v1.6.16",
        "version" : "2.0"
    },
    "scene" : 0,
    "scenes" : [
        {
            "name" : "Scene",
            "nodes" : [
                0
            ]
        }
    ],
    "nodes" : [
        {
            "mesh" : 0,
            "name" : "Cube",
            "scale" : [
                0.20912323892116547,
                0.24560284614562988,
                -4.36318826675415
            ]
        }
    ],
    "materials" : [
        {
            "doubleSided" : true,
            "name" : "Material",
            "pbrMetallicRoughness" : {
                "baseColorFactor" : [
                    0.800000011920929,
                    0.800000011920929,
                    0.800000011920929,
                    1
                ],
                "metallicFactor" : 0,
                "roughnessFactor" : 0.4000000059604645
            }
        },
        {
            "doubleSided" : true,
            "name" : "Material.002",
            "pbrMetallicRoughness" : {
                "baseColorFactor" : [
                    0,
                    0,
                    0,
                    1
                ],
                "metallicFactor" : 0,
                "roughnessFactor" : 0.5
            }
        }
    ],
    "meshes" : [
        {
            "name" : "Cube",
            "primitives" : [
                {
                    "attributes" : {
                        "POSITION" : 0,
                        "NORMAL" : 1,
                        "TEXCOORD_0" : 2
                    },
                    "indices" : 3,
                    "material" : 0
                },
                {
                    "attributes" : {
                        "POSITION" : 4,
                        "NORMAL" : 5,
                        "TEXCOORD_0" : 6
                    },
                    "indices" : 7,
                    "material" : 1
                }
            ]
        }
    ],
    "accessors" : [
        {
            "bufferView" : 0,
            "componentType" : 5126,
            "count" : 3004,
            "max" : [
                1.2360379695892334,
                1.1922177076339722,
                1
            ],
            "min" : [
                -1.2360379695892334,
                -5.635290622711182,
                -1
            ],
            "type" : "VEC3"
        },
        {
            "bufferView" : 1,
            "componentType" : 5126,
            "count" : 3004,
            "type" : "VEC3"
        },
        {
            "bufferView" : 2,
            "componentType" : 5126,
            "count" : 3004,
            "type" : "VEC2"
        },
        {
            "bufferView" : 3,
            "componentType" : 5123,
            "count" : 10656,
            "type" : "SCALAR"
        },
        {
            "bufferView" : 4,
            "componentType" : 5126,
            "count" : 318,
            "max" : [
                1,
                1,
                1
            ],
            "min" : [
                -1,
                0.875,
                -1
            ],
            "type" : "VEC3"
        },
        {
            "bufferView" : 5,
            "componentType" : 5126,
            "count" : 318,
            "type" : "VEC3"
        },
        {
            "bufferView" : 6,
            "componentType" : 5126,
            "count" : 318,
            "type" : "VEC2"
        },
        {
            "bufferView" : 7,
            "componentType" : 5123,
            "count" : 1248,
            "type" : "SCALAR"
        }
    ],
    "bufferViews" : [
        {
            "buffer" : 0,
            "byteLength" : 36048,
            "byteOffset" : 0
        },
        {
            "buffer" : 0,
            "byteLength" : 36048,
            "byteOffset" : 36048
        },
        {
            "buffer" : 0,
            "byteLength" : 24032,
            "byteOffset" : 72096
        },
        {
            "buffer" : 0,
            "byteLength" : 21312,
            "byteOffset" : 96128
        },
        {
            "buffer" : 0,
            "byteLength" : 3816,
            "byteOffset" : 117440
        },
        {
            "buffer" : 0,
            "byteLength" : 3816,
            "byteOffset" : 121256
        },
        {
            "buffer" : 0,
            "byteLength" : 2544,
            "byteOffset" : 125072
        },
        {
            "buffer" : 0,
            "byteLength" : 2496,
            "byteOffset" : 127616
        }
    ],
    "buffers" : [
        {
            "byteLength" : 130112,
            "uri" : "data:application/octet-stream;base64,"
        }
    ]
}
