{
  "accessors": [
    {
      "bufferView": 1,
      "componentType": 5126,
      "count": 642,
      "max": [
        1.6766200065612793,
        1.3256399631500244,
        2.10440993309021
      ],
      "min": [
        -6.9737100601196289,
        -1.7482600212097168,
        -1.9390799999237061
      ],
      "type": "VEC3"
    },
    {
      "bufferView": 1,
      "byteOffset": 7704,
      "componentType": 5126,
      "count": 642,
      "max": [
        1,
        1,
        1
      ],
      "min": [
        -1,
        -1,
        -1
      ],
      "type": "VEC3"
    },
    {
      "bufferView": 0,
      "componentType": 5125,
      "count": 1056,
      "max": [
        641
      ],
      "min": [
        0
      ],
      "type": "SCALAR"
    },
    {
      "bufferView": 1,
      "byteOffset": 15408,
      "componentType": 5126,
      "count": 577,
      "max": [
        0.26901999115943909,
        -0.97687000036239624,
        0.88374000787734985
      ],
      "min": [
        -0.90423792600631714,
        -1.3376200199127197,
        -0.87274998426437378
      ],
      "type": "VEC3"
    },
    {
      "bufferView": 1,
      "byteOffset": 22332,
      "componentType": 5126,
      "count": 577,
      "max": [
        1,
        0.99802559614181519,
        1
      ],
      "min": [
        -1,
        -0.99802559614181519,
        -1
      ],
      "type": "VEC3"
    },
    {
      "bufferView": 0,
      "byteOffset": 4224,
      "componentType": 5125,
      "count": 972,
      "max": [
        576
      ],
      "min": [
        0
      ],
      "type": "SCALAR"
    },
    {
      "bufferView": 1,
      "byteOffset": 29256,
      "componentType": 5126,
      "count": 316,
      "max": [
        0.94678997993469238,
        -0.98071998357772827,
        0.85311001539230347
      ],
      "min": [
        0.26899203658103943,
        -1.3337700366973877,
        -0.84210997819900513
      ],
      "type": "VEC3"
    },
    {
      "bufferView": 1,
      "byteOffset": 33048,
      "componentType": 5126,
      "count": 316,
      "max": [
        1,
        0.99792605638504028,
        0.99372518062591553
      ],
      "min": [
        0.01413994375616312,
        -0.99792605638504028,
        -0.99372518062591553
      ],
      "type": "VEC3"
    },
    {
      "bufferView": 0,
      "byteOffset": 8112,
      "componentType": 5125,
      "count": 468,
      "max": [
        315
      ],
      "min": [
        0
      ],
      "type": "SCALAR"
    },
    {
      "bufferView": 1,
      "byteOffset": 36840,
      "componentType": 5126,
      "count": 92,
      "max": [
        -0.83972001075744629,
        -1.0200799703598022,
        0.54044997692108154
      ],
      "min": [
        -0.89997798204421997,
        -1.2944099903106689,
        -0.52944999933242798
      ],
      "type": "VEC3"
    },
    {
      "bufferView": 1,
      "byteOffset": 37944,
      "componentType": 5126,
      "count": 92,
      "max": [
        0,
        0.99802559614181519,
        1
      ],
      "min": [
        -1,
        -0.99802559614181519,
        -1
      ],
      "type": "VEC3"
    },
    {
      "bufferView": 0,
      "byteOffset": 9984,
      "componentType": 5125,
      "count": 144,
      "max": [
        91
      ],
      "min": [
        0
      ],
      "type": "SCALAR"
    },
    {
      "bufferView": 1,
      "byteOffset": 39048,
      "componentType": 5126,
      "count": 998,
      "max": [
        2.4366099834442139,
        -1.0715199708938599,
        0.46972000598907471
      ],
      "min": [
        -32.213260650634766,
        -1.5836299657821655,
        -19.927440643310547
      ],
      "type": "VEC3"
    },
    {
      "bufferView": 1,
      "byteOffset": 51024,
      "componentType": 5126,
      "count": 998,
      "max": [
        1,
        1,
        1
      ],
      "min": [
        -1,
        -1,
        -1
      ],
      "type": "VEC3"
    },
    {
      "bufferView": 0,
      "byteOffset": 10560,
      "componentType": 5125,
      "count": 1914,
      "max": [
        997
      ],
      "min": [
        0
      ],
      "type": "SCALAR"
    },
    {
      "bufferView": 1,
      "byteOffset": 63000,
      "componentType": 5126,
      "count": 207,
      "max": [
        2.0743699073791504,
        -0.63279998302459717,
        2.137660026550293
      ],
      "min": [
        -1.3151999711990356,
        -1.170259952545166,
        -1.0318599939346313
      ],
      "type": "VEC3"
    },
    {
      "bufferView": 1,
      "byteOffset": 65484,
      "componentType": 5126,
      "count": 207,
      "max": [
        1,
        1,
        1
      ],
      "min": [
        -1,
        -1,
        -1
      ],
      "type": "VEC3"
    },
    {
      "bufferView": 0,
      "byteOffset": 18216,
      "componentType": 5125,
      "count": 426,
      "max": [
        206
      ],
      "min": [
        0
      ],
      "type": "SCALAR"
    },
    {
      "bufferView": 1,
      "byteOffset": 67968,
      "componentType": 5126,
      "count": 1745,
      "max": [
        7.4465198516845703,
        -0.45515000820159912,
        4.177609920501709
      ],
      "min": [
        -15.567259788513184,
        -1.6419399976730347,
        -7.4188799858093262
      ],
      "type": "VEC3"
    },
    {
      "bufferView": 1,
      "byteOffset": 88908,
      "componentType": 5126,
      "count": 1745,
      "max": [
        1,
        1,
        1
      ],
      "min": [
        -1,
        -1,
        -1
      ],
      "type": "VEC3"
    },
    {
      "bufferView": 0,
      "byteOffset": 19920,
      "componentType": 5125,
      "count": 3309,
      "max": [
        1744
      ],
      "min": [
        0
      ],
      "type": "SCALAR"
    },
    {
      "bufferView": 1,
      "byteOffset": 109848,
      "componentType": 5126,
      "count": 2125,
      "max": [
        -3.9998300075531006,
        -1.18517005443573,
        1.5044100284576416
      ],
      "min": [
        -14.670370101928711,
        -1.5604300498962402,
        -9.6415004730224609
      ],
      "type": "VEC3"
    },
    {
      "bufferView": 1,
      "byteOffset": 135348,
      "componentType": 5126,
      "count": 2125,
      "max": [
        1,
        1,
        1
      ],
      "min": [
        -1,
        -1,
        -1
      ],
      "type": "VEC3"
    },
    {
      "bufferView": 0,
      "byteOffset": 33156,
      "componentType": 5125,
      "count": 2724,
      "max": [
        2124
      ],
      "min": [
        0
      ],
      "type": "SCALAR"
    },
    {
      "bufferView": 1,
      "byteOffset": 160848,
      "componentType": 5126,
      "count": 144,
      "max": [
        11.669130325317383,
        -1.2775299549102783,
        0.85658997297286987
      ],
      "min": [
        1.6735199689865112,
        -1.4441100358963013,
        -0.90801000595092773
      ],
      "type": "VEC3"
    },
    {
      "bufferView": 1,
      "byteOffset": 162576,
      "componentType": 5126,
      "count": 144,
      "max": [
        1,
        1,
        0.18552008271217346
      ],
      "min": [
        -0.99805164337158203,
        -1,
        -0.18552008271217346
      ],
      "type": "VEC3"
    },
    {
      "bufferView": 0,
      "byteOffset": 44052,
      "componentType": 5125,
      "count": 216,
      "max": [
        143
      ],
      "min": [
        0
      ],
      "type": "SCALAR"
    },
    {
      "bufferView": 2,
      "componentType": 5126,
      "count": 1,
      "max": [
        1,
        0,
        0,
        0,
        0,
        1,
        0,
        0,
        0,
        0,
        1,
        0,
        0,
        0,
        0,
        1
      ],
      "min": [
        1,
        0,
        0,
        0,
        0,
        1,
        0,
        0,
        0,
        0,
        1,
        0,
        0,
        0,
        0,
        1
      ],
      "type": "MAT4"
    }
  ],
  "asset": {
    "extras": {
      "author": "TastyTony (https://sketchfab.com/TastyTony)",
      "license": "CC-BY-4.0 (http://creativecommons.org/licenses/by/4.0/)",
      "source": "https://sketchfab.com/3d-models/low-poly-sten-gun-51a9f6bc2cff4308af41bdde7c83d446",
      "title": "Low-Poly Sten Gun"
    },
    "generator": "Sketchfab-6.84.0",
    "version": "2.0"
  },
  "bufferViews": [
    {
      "buffer": 0,
      "byteLength": 44916,
      "byteOffset": 0,
      "name": "floatBufferViews",
      "target": 34963
    },
    {
      "buffer": 0,
      "byteLength": 164304,
      "byteOffset": 44916,
      "byteStride": 12,
      "name": "floatBufferViews",
      "target": 34962
    },
    {
      "buffer": 0,
      "byteLength": 64,
      "byteOffset": 209220,
      "byteStride": 64,
      "name": "floatBufferViews"
    }
  ],
  "buffers": [
    {
      "byteLength": 209284,
      "uri": "scene.bin"
    }
  ],
  "extensionsRequired": [
    "KHR_materials_pbrSpecularGlossiness"
  ],
  "extensionsUsed": [
    "KHR_materials_pbrSpecularGlossiness"
  ],
  "materials": [
    {
      "doubleSided": true,
      "emissiveFactor": [
        0,
        0,
        0
      ],
      "extensions": {
        "KHR_materials_pbrSpecularGlossiness": {
          "diffuseFactor": [
            0.1968368902,
            0.1968368902,
            0.1968368902,
            1
          ],
          "glossinessFactor": 0,
          "specularFactor": [
            0.0443978659,
            0.0443978659,
            0.0443978659
          ]
        }
      },
      "name": "Material.003"
    },
    {
      "doubleSided": true,
      "emissiveFactor": [
        0,
        0,
        0
      ],
      "extensions": {
        "KHR_materials_pbrSpecularGlossiness": {
          "diffuseFactor": [
            1,
            1,
            1,
            1
          ],
          "glossinessFactor": 1,
          "specularFactor": [
            1,
            1,
            1
          ]
        }
      },
      "name": "Material.007"
    },
    {
      "doubleSided": true,
      "emissiveFactor": [
        0,
        0,
        0
      ],
      "extensions": {
        "KHR_materials_pbrSpecularGlossiness": {
          "diffuseFactor": [
            1,
            1,
            1,
            1
          ],
          "glossinessFactor": 1,
          "specularFactor": [
            1,
            1,
            1
          ]
        }
      },
      "name": "Material.006"
    },
    {
      "doubleSided": true,
      "emissiveFactor": [
        0,
        0,
        0
      ],
      "extensions": {
        "KHR_materials_pbrSpecularGlossiness": {
          "diffuseFactor": [
            1,
            1,
            1,
            1
          ],
          "glossinessFactor": 1,
          "specularFactor": [
            1,
            1,
            1
          ]
        }
      },
      "name": "Material.000"
    },
    {
      "doubleSided": true,
      "emissiveFactor": [
        0,
        0,
        0
      ],
      "extensions": {
        "KHR_materials_pbrSpecularGlossiness": {
          "diffuseFactor": [
            0.13586128049999999,
            0.13586128049999999,
            0.13586128049999999,
            1
          ],
          "glossinessFactor": 0,
          "specularFactor": [
            0,
            0,
            0
          ]
        }
      },
      "name": "Material.002"
    },
    {
      "doubleSided": true,
      "emissiveFactor": [
        0,
        0,
        0
      ],
      "extensions": {
        "KHR_materials_pbrSpecularGlossiness": {
          "diffuseFactor": [
            0.2029344512,
            0.2029344512,
            0.2029344512,
            1
          ],
          "glossinessFactor": 0,
          "specularFactor": [
            0,
            0,
            0
          ]
        }
      },
      "name": "Material.004"
    },
    {
      "doubleSided": true,
      "emissiveFactor": [
        0,
        0,
        0
      ],
      "extensions": {
        "KHR_materials_pbrSpecularGlossiness": {
          "diffuseFactor": [
            0.13586128049999999,
            0.13586128049999999,
            0.13586128049999999,
            1
          ],
          "glossinessFactor": 0,
          "specularFactor": [
            0,
            0,
            0
          ]
        }
      },
      "name": "body"
    },
    {
      "doubleSided": true,
      "emissiveFactor": [
        0,
        0,
        0
      ],
      "extensions": {
        "KHR_materials_pbrSpecularGlossiness": {
          "diffuseFactor": [
            0.25171493900000003,
            0.25171493900000003,
            0.25171493900000003,
            1
          ],
          "glossinessFactor": 0,
          "specularFactor": [
            0,
            0,
            0
          ]
        }
      },
      "name": "Material.005"
    },
    {
      "doubleSided": true,
      "emissiveFactor": [
        0,
        0,
        0
      ],
      "extensions": {
        "KHR_materials_pbrSpecularGlossiness": {
          "diffuseFactor": [
            0.21512957320000001,
            0.21512957320000001,
            0.21512957320000001,
            1
          ],
          "glossinessFactor": 0,
          "specularFactor": [
            0,
            0,
            0
          ]
        }
      },
      "name": "Material.001"
    }
  ],
  "meshes": [
    {
      "name": "Cube.007_0",
      "primitives": [
        {
          "attributes": {
            "NORMAL": 1,
            "POSITION": 0
          },
          "indices": 2,
          "material": 0,
          "mode": 4
        }
      ]
    },
    {
      "name": "Cube.007_1",
      "primitives": [
        {
          "attributes": {
            "NORMAL": 4,
            "POSITION": 3
          },
          "indices": 5,
          "material": 1,
          "mode": 4
        }
      ]
    },
    {
      "name": "Cube.007_2",
      "primitives": [
        {
          "attributes": {
            "NORMAL": 7,
            "POSITION": 6
          },
          "indices": 8,
          "material": 2,
          "mode": 4
        }
      ]
    },
    {
      "name": "Cube.007_3",
      "primitives": [
        {
          "attributes": {
            "NORMAL": 10,
            "POSITION": 9
          },
          "indices": 11,
          "material": 3,
          "mode": 4
        }
      ]
    },
    {
      "name": "Cube.007_4",
      "primitives": [
        {
          "attributes": {
            "NORMAL": 13,
            "POSITION": 12
          },
          "indices": 14,
          "material": 4,
          "mode": 4
        }
      ]
    },
    {
      "name": "Cube.007_5",
      "primitives": [
        {
          "attributes": {
            "NORMAL": 16,
            "POSITION": 15
          },
          "indices": 17,
          "material": 5,
          "mode": 4
        }
      ]
    },
    {
      "name": "Cube.007_6",
      "primitives": [
        {
          "attributes": {
            "NORMAL": 19,
            "POSITION": 18
          },
          "indices": 20,
          "material": 6,
          "mode": 4
        }
      ]
    },
    {
      "name": "Cube.007_7",
      "primitives": [
        {
          "attributes": {
            "NORMAL": 22,
            "POSITION": 21
          },
          "indices": 23,
          "material": 7,
          "mode": 4
        }
      ]
    },
    {
      "name": "Cube.007_8",
      "primitives": [
        {
          "attributes": {
            "NORMAL": 25,
            "POSITION": 24
          },
          "indices": 26,
          "material": 8,
          "mode": 4
        }
      ]
    }
  ],
  "nodes": [
    {
      "children": [
        1
      ],
      "name": "RootNode (gltf orientation matrix)",
      "rotation": [
        -0.70710678118654746,
        -0,
        -0,
        0.70710678118654757
      ]
    },
    {
      "children": [
        2
      ],
      "name": "RootNode (model correction matrix)"
    },
    {
      "children": [
        3,
        5
      ],
      "name": "Root"
    },
    {
      "children": [
        4
      ],
      "matrix": [
        -0.97411999999999999,
        0.071640000000000009,
        0.21436000000000002,
        0,
        -0.22569000000000003,
        -0.35951000000000005,
        -0.90544000000000002,
        0,
        0.012200000000000003,
        -0.93039000000000005,
        0.36637000000000008,
        0,
        0.097980000000000025,
        -20.37171,
        7.4054500000000001,
        1
      ],
      "name": "Lamp"
    },
    {
      "name": "Lamp"
    },
    {
      "children": [
        6,
        7
      ],
      "matrix": [
        0,
        0,
        -0.60950000000000004,
        0,
        -0,
        0.60950000000000004,
        -0,
        0,
        0.60950000000000004,
        0,
        0,
        0,
        3.10188,
        -0,
        0.8430200000000001,
        1
      ],
      "name": "Armature"
    },
    {
      "name": "Armature_rootJoint"
    },
    {
      "children": [
        8,
        9,
        10,
        11,
        12,
        13,
        14,
        15,
        16
      ],
      "matrix": [
        0,
        -0,
        0.35776000000000002,
        0,
        -0,
        1.64069,
        0,
        0,
        -0.17884000000000003,
        -0,
        0,
        0,
        -0.05621000000000001,
        2.2326799999999998,
        -1.4611499999999999,
        1
      ],
      "name": "Cube.007"
    },
    {
      "mesh": 0,
      "name": "Cube.007_0"
    },
    {
      "mesh": 1,
      "name": "Cube.007_1"
    },
    {
      "mesh": 2,
      "name": "Cube.007_2"
    },
    {
      "mesh": 3,
      "name": "Cube.007_3"
    },
    {
      "mesh": 4,
      "name": "Cube.007_4"
    },
    {
      "mesh": 5,
      "name": "Cube.007_5"
    },
    {
      "mesh": 6,
      "name": "Cube.007_6"
    },
    {
      "mesh": 7,
      "name": "Cube.007_7"
    },
    {
      "mesh": 8,
      "name": "Cube.007_8"
    }
  ],
  "scene": 0,
  "scenes": [
    {
      "name": "OSG_Scene",
      "nodes": [
        0
      ]
    }
  ],
  "skins": [
    {
      "inverseBindMatrices": 27,
      "joints": [
        6
      ],
      "skeleton": 6
    }
  ]
}

