{
    "asset" : {
        "generator" : "Khronos glTF Blender I/O v1.6.16",
        "version" : "2.0"
    },
    "scene" : 0,
    "scenes" : [
        {
            "name" : "Scene",
            "nodes" : [
                0,
                1,
                2,
                3,
                4,
                5
            ]
        }
    ],
    "nodes" : [
        {
            "mesh" : 0,
            "name" : "Cylinder",
            "rotation" : [
                -0.5265936851501465,
                0.47191017866134644,
                -0.47191011905670166,
                0.5265936851501465
            ],
            "scale" : [
                0.18070060014724731,
                2.9012467861175537,
                0.18070060014724731
            ],
            "translation" : [
                0.00290679931640625,
                0.13254046440124512,
                -1.7784051895141602
            ]
        },
        {
            "name" : "Sun",
            "translation" : [
                0,
                5.880319118499756,
                5.632026195526123
            ]
        },
        {
            "mesh" : 1,
            "name" : "Cube",
            "rotation" : [
                0,
                0.7071068286895752,
                0,
                0.7071068286895752
            ],
            "scale" : [
                0.18070054054260254,
                0.3166026473045349,
                0.18070054054260254
            ],
            "translation" : [
                0.00290679931640625,
                -0.27581262588500977,
                -2.098745346069336
            ]
        },
        {
            "mesh" : 2,
            "name" : "Cube.001",
            "rotation" : [
                0,
                0.7071068286895752,
                0,
                0.7071068286895752
            ],
            "scale" : [
                0.2924906313419342,
                0.1890798956155777,
                0.03835505619645119
            ],
            "translation" : [
                0.0029070377349853516,
                -0.771148681640625,
                1.8566789627075195
            ]
        },
        {
            "mesh" : 3,
            "name" : "Cube.002",
            "rotation" : [
                0,
                0.7071068286895752,
                0,
                0.7071068286895752
            ],
            "scale" : [
                0.030512578785419464,
                0.11744870990514755,
                0.030512578785419464
            ],
            "translation" : [
                0.0029070377349853516,
                -0.70241379737854,
                1.8566789627075195
            ]
        },
        {
            "mesh" : 4,
            "name" : "Cube.003",
            "rotation" : [
                0,
                0.7071068286895752,
                0,
                0.7071068286895752
            ],
            "scale" : [
                0.18070054054260254,
                0.715505063533783,
                0.15583039820194244
            ],
            "translation" : [
                0.0029069185256958008,
                -1.1618369817733765,
                0.16379523277282715
            ]
        }
    ],
    "materials" : [
        {
            "doubleSided" : true,
            "name" : "GunMetal",
            "pbrMetallicRoughness" : {
                "baseColorFactor" : [
                    0.36723756790161133,
                    0.36723756790161133,
                    0.36723756790161133,
                    1
                ],
                "metallicFactor" : 0.8970588445663452,
                "roughnessFactor" : 0.9181817770004272
            }
        },
        {
            "doubleSided" : true,
            "name" : "Gunwood",
            "pbrMetallicRoughness" : {
                "baseColorTexture" : {
                    "index" : 0
                },
                "metallicFactor" : 0,
                "roughnessFactor" : 0.5
            }
        }
    ],
    "meshes" : [
        {
            "name" : "Cylinder",
            "primitives" : [
                {
                    "attributes" : {
                        "POSITION" : 0,
                        "NORMAL" : 1,
                        "TEXCOORD_0" : 2
                    },
                    "indices" : 3,
                    "material" : 0
                }
            ]
        },
        {
            "name" : "Cube.001",
            "primitives" : [
                {
                    "attributes" : {
                        "POSITION" : 4,
                        "NORMAL" : 5,
                        "TEXCOORD_0" : 6
                    },
                    "indices" : 7,
                    "material" : 1
                }
            ]
        },
        {
            "name" : "Cube.002",
            "primitives" : [
                {
                    "attributes" : {
                        "POSITION" : 8,
                        "NORMAL" : 9,
                        "TEXCOORD_0" : 10
                    },
                    "indices" : 11,
                    "material" : 0
                }
            ]
        },
        {
            "name" : "Cube.004",
            "primitives" : [
                {
                    "attributes" : {
                        "POSITION" : 12,
                        "NORMAL" : 13,
                        "TEXCOORD_0" : 14
                    },
                    "indices" : 15,
                    "material" : 0
                }
            ]
        },
        {
            "name" : "Cube.005",
            "primitives" : [
                {
                    "attributes" : {
                        "POSITION" : 16,
                        "NORMAL" : 17,
                        "TEXCOORD_0" : 18
                    },
                    "indices" : 19,
                    "material" : 0
                }
            ]
        }
    ],
    "textures" : [
        {
            "sampler" : 0,
            "source" : 0
        }
    ],
    "images" : [
        {
            "bufferView" : 8,
            "mimeType" : "image/jpeg",
            "name" : "wood1"
        }
    ],
    "accessors" : [
        {
            "bufferView" : 0,
            "componentType" : 5126,
            "count" : 2566,
            "max" : [
                1.3619334697723389,
                1.0757489204406738,
                1.361933946609497
            ],
            "min" : [
                -1.5785983800888062,
                -1.3990168571472168,
                -1.361933946609497
            ],
            "type" : "VEC3"
        },
        {
            "bufferView" : 1,
            "componentType" : 5126,
            "count" : 2566,
            "type" : "VEC3"
        },
        {
            "bufferView" : 2,
            "componentType" : 5126,
            "count" : 2566,
            "type" : "VEC2"
        },
        {
            "bufferView" : 3,
            "componentType" : 5123,
            "count" : 4356,
            "type" : "SCALAR"
        },
        {
            "bufferView" : 4,
            "componentType" : 5126,
            "count" : 67,
            "max" : [
                1,
                1,
                2.1721384525299072
            ],
            "min" : [
                -42.98431396484375,
                -2.7104835510253906,
                -2.1721384525299072
            ],
            "type" : "VEC3"
        },
        {
            "bufferView" : 5,
            "componentType" : 5126,
            "count" : 67,
            "type" : "VEC3"
        },
        {
            "bufferView" : 6,
            "componentType" : 5126,
            "count" : 67,
            "type" : "VEC2"
        },
        {
            "bufferView" : 7,
            "componentType" : 5123,
            "count" : 216,
            "type" : "SCALAR"
        },
        {
            "bufferView" : 9,
            "componentType" : 5126,
            "count" : 127,
            "max" : [
                1,
                1,
                1
            ],
            "min" : [
                -1,
                -0.8294295072555542,
                -1
            ],
            "type" : "VEC3"
        },
        {
            "bufferView" : 10,
            "componentType" : 5126,
            "count" : 127,
            "type" : "VEC3"
        },
        {
            "bufferView" : 11,
            "componentType" : 5126,
            "count" : 127,
            "type" : "VEC2"
        },
        {
            "bufferView" : 12,
            "componentType" : 5123,
            "count" : 342,
            "type" : "SCALAR"
        },
        {
            "bufferView" : 13,
            "componentType" : 5126,
            "count" : 84,
            "max" : [
                1,
                1,
                1
            ],
            "min" : [
                -1,
                -1,
                -1
            ],
            "type" : "VEC3"
        },
        {
            "bufferView" : 14,
            "componentType" : 5126,
            "count" : 84,
            "type" : "VEC3"
        },
        {
            "bufferView" : 15,
            "componentType" : 5126,
            "count" : 84,
            "type" : "VEC2"
        },
        {
            "bufferView" : 16,
            "componentType" : 5123,
            "count" : 192,
            "type" : "SCALAR"
        },
        {
            "bufferView" : 17,
            "componentType" : 5126,
            "count" : 768,
            "max" : [
                1.1564418077468872,
                1,
                1
            ],
            "min" : [
                -1.1564425230026245,
                -1,
                -1
            ],
            "type" : "VEC3"
        },
        {
            "bufferView" : 18,
            "componentType" : 5126,
            "count" : 768,
            "type" : "VEC3"
        },
        {
            "bufferView" : 19,
            "componentType" : 5126,
            "count" : 768,
            "type" : "VEC2"
        },
        {
            "bufferView" : 20,
            "componentType" : 5123,
            "count" : 1884,
            "type" : "SCALAR"
        }
    ],
    "bufferViews" : [
        {
            "buffer" : 0,
            "byteLength" : 30792,
            "byteOffset" : 0
        },
        {
            "buffer" : 0,
            "byteLength" : 30792,
            "byteOffset" : 30792
        },
        {
            "buffer" : 0,
            "byteLength" : 20528,
            "byteOffset" : 61584
        },
        {
            "buffer" : 0,
            "byteLength" : 8712,
            "byteOffset" : 82112
        },
        {
            "buffer" : 0,
            "byteLength" : 804,
            "byteOffset" : 90824
        },
        {
            "buffer" : 0,
            "byteLength" : 804,
            "byteOffset" : 91628
        },
        {
            "buffer" : 0,
            "byteLength" : 536,
            "byteOffset" : 92432
        },
        {
            "buffer" : 0,
            "byteLength" : 432,
            "byteOffset" : 92968
        },
        {
            "buffer" : 0,
            "byteLength" : 48455,
            "byteOffset" : 93400
        },
        {
            "buffer" : 0,
            "byteLength" : 1524,
            "byteOffset" : 141856
        },
        {
            "buffer" : 0,
            "byteLength" : 1524,
            "byteOffset" : 143380
        },
        {
            "buffer" : 0,
            "byteLength" : 1016,
            "byteOffset" : 144904
        },
        {
            "buffer" : 0,
            "byteLength" : 684,
            "byteOffset" : 145920
        },
        {
            "buffer" : 0,
            "byteLength" : 1008,
            "byteOffset" : 146604
        },
        {
            "buffer" : 0,
            "byteLength" : 1008,
            "byteOffset" : 147612
        },
        {
            "buffer" : 0,
            "byteLength" : 672,
            "byteOffset" : 148620
        },
        {
            "buffer" : 0,
            "byteLength" : 384,
            "byteOffset" : 149292
        },
        {
            "buffer" : 0,
            "byteLength" : 9216,
            "byteOffset" : 149676
        },
        {
            "buffer" : 0,
            "byteLength" : 9216,
            "byteOffset" : 158892
        },
        {
            "buffer" : 0,
            "byteLength" : 6144,
            "byteOffset" : 168108
        },
        {
            "buffer" : 0,
            "byteLength" : 3768,
            "byteOffset" : 174252
        }
    ],
    "samplers" : [
        {
            "magFilter" : 9729,
            "minFilter" : 9987
        }
    ],
    "buffers" : [
        {
            "byteLength" : 178020,
            "uri" : "data:application/octet-stream;base64,"
        }
    ]
}
