{
  "accessors": [
    {
      "bufferView": 2,
      "componentType": 5126,
      "count": 54,
      "max": [
        15.157939910888672,
        -2.5,
        4.1052298545837402
      ],
      "min": [
        12.506440162658691,
        -5.1515002250671387,
        0
      ],
      "type": "VEC3"
    },
    {
      "bufferView": 2,
      "byteOffset": 648,
      "componentType": 5126,
      "count": 54,
      "max": [
        0.99999880790710449,
        1,
        1
      ],
      "min": [
        -1,
        -1,
        -0.0017399975331500173
      ],
      "type": "VEC3"
    },
    {
      "bufferView": 1,
      "componentType": 5126,
      "count": 54,
      "max": [
        0.91262000799179077,
        0.67457997798919678
      ],
      "min": [
        0.10976999998092651,
        0.33880999684333801
      ],
      "type": "VEC2"
    },
    {
      "bufferView": 0,
      "componentType": 5125,
      "count": 78,
      "max": [
        53
      ],
      "min": [
        0
      ],
      "type": "SCALAR"
    },
    {
      "bufferView": 2,
      "byteOffset": 1296,
      "componentType": 5126,
      "count": 136,
      "max": [
        25.401769638061523,
        25.401779174804688,
        9
      ],
      "min": [
        -16.5,
        -16.5,
        0
      ],
      "type": "VEC3"
    },
    {
      "bufferView": 2,
      "byteOffset": 2928,
      "componentType": 5126,
      "count": 136,
      "max": [
        1,
        1,
        1
      ],
      "min": [
        -1,
        -1,
        -1
      ],
      "type": "VEC3"
    },
    {
      "bufferView": 1,
      "byteOffset": 432,
      "componentType": 5126,
      "count": 136,
      "max": [
        0.93874001502990723,
        0.95186001062393188
      ],
      "min": [
        0.26381999254226685,
        0.34591999650001526
      ],
      "type": "VEC2"
    },
    {
      "bufferView": 0,
      "byteOffset": 312,
      "componentType": 5125,
      "count": 252,
      "max": [
        135
      ],
      "min": [
        0
      ],
      "type": "SCALAR"
    },
    {
      "bufferView": 2,
      "byteOffset": 4560,
      "componentType": 5126,
      "count": 304,
      "max": [
        37.5,
        37.5,
        12
      ],
      "min": [
        -37.5,
        -37.5,
        0
      ],
      "type": "VEC3"
    },
    {
      "bufferView": 2,
      "byteOffset": 8208,
      "componentType": 5126,
      "count": 304,
      "max": [
        1,
        1,
        1
      ],
      "min": [
        -1,
        -1,
        -1
      ],
      "type": "VEC3"
    },
    {
      "bufferView": 1,
      "byteOffset": 1520,
      "componentType": 5126,
      "count": 304,
      "max": [
        0.88805001974105835,
        0.87133002281188965
      ],
      "min": [
        0.10706999897956848,
        0.11839000135660172
      ],
      "type": "VEC2"
    },
    {
      "bufferView": 0,
      "byteOffset": 1320,
      "componentType": 5125,
      "count": 528,
      "max": [
        303
      ],
      "min": [
        0
      ],
      "type": "SCALAR"
    },
    {
      "bufferView": 2,
      "byteOffset": 11856,
      "componentType": 5126,
      "count": 885,
      "max": [
        42.500011444091797,
        42.500011444091797,
        12
      ],
      "min": [
        -42.5,
        -42.5,
        2.5
      ],
      "type": "VEC3"
    },
    {
      "bufferView": 2,
      "byteOffset": 22476,
      "componentType": 5126,
      "count": 885,
      "max": [
        1,
        1,
        1
      ],
      "min": [
        -1,
        -1,
        -1
      ],
      "type": "VEC3"
    },
    {
      "bufferView": 1,
      "byteOffset": 3952,
      "componentType": 5126,
      "count": 885,
      "max": [
        0.92716997861862183,
        0.92326998710632324
      ],
      "min": [
        0.047299999743700027,
        0.048200000077486038
      ],
      "type": "VEC2"
    },
    {
      "bufferView": 0,
      "byteOffset": 3432,
      "componentType": 5125,
      "count": 1332,
      "max": [
        884
      ],
      "min": [
        0
      ],
      "type": "SCALAR"
    },
    {
      "bufferView": 2,
      "byteOffset": 33096,
      "componentType": 5126,
      "count": 1195,
      "max": [
        42.500011444091797,
        42.500011444091797,
        12
      ],
      "min": [
        -42.5,
        -42.5,
        -0.5
      ],
      "type": "VEC3"
    },
    {
      "bufferView": 2,
      "byteOffset": 47436,
      "componentType": 5126,
      "count": 1195,
      "max": [
        1,
        1,
        0.85749733448028564
      ],
      "min": [
        -1,
        -1,
        -0.85749471187591553
      ],
      "type": "VEC3"
    },
    {
      "bufferView": 1,
      "byteOffset": 11032,
      "componentType": 5126,
      "count": 1195,
      "max": [
        0.88621002435684204,
        0.94453001022338867
      ],
      "min": [
        0.11083000153303146,
        0.059200000017881393
      ],
      "type": "VEC2"
    },
    {
      "bufferView": 0,
      "byteOffset": 8760,
      "componentType": 5125,
      "count": 2160,
      "max": [
        1194
      ],
      "min": [
        0
      ],
      "type": "SCALAR"
    },
    {
      "bufferView": 2,
      "byteOffset": 61776,
      "componentType": 5126,
      "count": 191,
      "max": [
        32.5,
        32.500011444091797,
        0
      ],
      "min": [
        -32.5,
        -32.5,
        0
      ],
      "type": "VEC3"
    },
    {
      "bufferView": 2,
      "byteOffset": 64068,
      "componentType": 5126,
      "count": 191,
      "max": [
        0,
        -0,
        1
      ],
      "min": [
        0,
        -0,
        1
      ],
      "type": "VEC3"
    },
    {
      "bufferView": 1,
      "byteOffset": 20592,
      "componentType": 5126,
      "count": 191,
      "max": [
        0.89111000299453735,
        0.89047998189926147
      ],
      "min": [
        0.10922999680042267,
        0.10943000018596649
      ],
      "type": "VEC2"
    },
    {
      "bufferView": 0,
      "byteOffset": 17400,
      "componentType": 5125,
      "count": 288,
      "max": [
        190
      ],
      "min": [
        0
      ],
      "type": "SCALAR"
    },
    {
      "bufferView": 2,
      "byteOffset": 66360,
      "componentType": 5126,
      "count": 292,
      "max": [
        27.5,
        27.500009536743164,
        -0
      ],
      "min": [
        -27.5,
        -27.5,
        -0
      ],
      "type": "VEC3"
    },
    {
      "bufferView": 2,
      "byteOffset": 69864,
      "componentType": 5126,
      "count": 292,
      "max": [
        0,
        0,
        1
      ],
      "min": [
        0,
        0,
        1
      ],
      "type": "VEC3"
    },
    {
      "bufferView": 1,
      "byteOffset": 22120,
      "componentType": 5126,
      "count": 292,
      "max": [
        0.89111000299453735,
        0.89047998189926147
      ],
      "min": [
        0.10922999680042267,
        0.10943000018596649
      ],
      "type": "VEC2"
    },
    {
      "bufferView": 0,
      "byteOffset": 18552,
      "componentType": 5125,
      "count": 438,
      "max": [
        291
      ],
      "min": [
        0
      ],
      "type": "SCALAR"
    },
    {
      "bufferView": 2,
      "byteOffset": 73368,
      "componentType": 5126,
      "count": 150,
      "max": [
        2.1109600067138672,
        15.151510238647461,
        3.6947100162506104
      ],
      "min": [
        -5.1515097618103027,
        2.5,
        0
      ],
      "type": "VEC3"
    },
    {
      "bufferView": 2,
      "byteOffset": 75168,
      "componentType": 5126,
      "count": 150,
      "max": [
        1,
        1,
        1
      ],
      "min": [
        -1,
        -1,
        -0.17938965559005737
      ],
      "type": "VEC3"
    },
    {
      "bufferView": 1,
      "byteOffset": 24456,
      "componentType": 5126,
      "count": 150,
      "max": [
        0.86772000789642334,
        0.68457001447677612
      ],
      "min": [
        0.12874999642372131,
        0.31854000687599182
      ],
      "type": "VEC2"
    },
    {
      "bufferView": 0,
      "byteOffset": 20304,
      "componentType": 5125,
      "count": 252,
      "max": [
        149
      ],
      "min": [
        0
      ],
      "type": "SCALAR"
    },
    {
      "bufferView": 2,
      "byteOffset": 76968,
      "componentType": 5126,
      "count": 285,
      "max": [
        15.15149974822998,
        15.15149974822998,
        3.6947100162506104
      ],
      "min": [
        7.5,
        -5.1515002250671387,
        0
      ],
      "type": "VEC3"
    },
    {
      "bufferView": 2,
      "byteOffset": 80388,
      "componentType": 5126,
      "count": 285,
      "max": [
        1,
        1,
        1
      ],
      "min": [
        -1,
        -1,
        -0.17935094237327576
      ],
      "type": "VEC3"
    },
    {
      "bufferView": 1,
      "byteOffset": 25656,
      "componentType": 5126,
      "count": 285,
      "max": [
        0.91057002544403076,
        0.67056000232696533
      ],
      "min": [
        0.07817000150680542,
        0.30656999349594116
      ],
      "type": "VEC2"
    },
    {
      "bufferView": 0,
      "byteOffset": 21312,
      "componentType": 5125,
      "count": 522,
      "max": [
        284
      ],
      "min": [
        0
      ],
      "type": "SCALAR"
    },
    {
      "bufferView": 2,
      "byteOffset": 83808,
      "componentType": 5126,
      "count": 60,
      "max": [
        7.5000100135803223,
        15.15149974822998,
        3.6947100162506104
      ],
      "min": [
        -5.1515002250671387,
        -5.1515002250671387,
        0
      ],
      "type": "VEC3"
    },
    {
      "bufferView": 2,
      "byteOffset": 84528,
      "componentType": 5126,
      "count": 60,
      "max": [
        1,
        1,
        1
      ],
      "min": [
        -1,
        -1,
        0
      ],
      "type": "VEC3"
    },
    {
      "bufferView": 1,
      "byteOffset": 27936,
      "componentType": 5126,
      "count": 60,
      "max": [
        0.95718997716903687,
        0.66953998804092407
      ],
      "min": [
        0.04479999840259552,
        0.3256399929523468
      ],
      "type": "VEC2"
    },
    {
      "bufferView": 0,
      "byteOffset": 23400,
      "componentType": 5125,
      "count": 90,
      "max": [
        59
      ],
      "min": [
        0
      ],
      "type": "SCALAR"
    },
    {
      "bufferView": 2,
      "byteOffset": 85248,
      "componentType": 5126,
      "count": 240,
      "max": [
        37.5,
        37.5,
        0
      ],
      "min": [
        -37.5,
        -37.5,
        -6
      ],
      "type": "VEC3"
    },
    {
      "bufferView": 2,
      "byteOffset": 88128,
      "componentType": 5126,
      "count": 240,
      "max": [
        1,
        1,
        0
      ],
      "min": [
        -1,
        -1,
        0
      ],
      "type": "VEC3"
    },
    {
      "bufferView": 1,
      "byteOffset": 28416,
      "componentType": 5126,
      "count": 240,
      "max": [
        0.88479000329971313,
        0.96174997091293335
      ],
      "min": [
        0.11520999670028687,
        0.038249999284744263
      ],
      "type": "VEC2"
    },
    {
      "bufferView": 1,
      "byteOffset": 30336,
      "componentType": 5126,
      "count": 240,
      "max": [
        0.88479000329971313,
        0.96174997091293335
      ],
      "min": [
        0.11520999670028687,
        0.038249999284744263
      ],
      "type": "VEC2"
    },
    {
      "bufferView": 0,
      "byteOffset": 23760,
      "componentType": 5125,
      "count": 360,
      "max": [
        239
      ],
      "min": [
        0
      ],
      "type": "SCALAR"
    }
  ],
  "asset": {
    "extras": {
      "author": "cyrok91 (https://sketchfab.com/cyrok91)",
      "license": "CC-BY-4.0 (http://creativecommons.org/licenses/by/4.0/)",
      "source": "https://sketchfab.com/3d-models/arena-7c567b2aa8094d65a81caf3db75a650b",
      "title": "Arena"
    },
    "generator": "Sketchfab-9.55.0",
    "version": "2.0"
  },
  "bufferViews": [
    {
      "buffer": 0,
      "byteLength": 25200,
      "byteOffset": 0,
      "name": "floatBufferViews",
      "target": 34963
    },
    {
      "buffer": 0,
      "byteLength": 32256,
      "byteOffset": 25200,
      "byteStride": 8,
      "name": "floatBufferViews",
      "target": 34962
    },
    {
      "buffer": 0,
      "byteLength": 91008,
      "byteOffset": 57456,
      "byteStride": 12,
      "name": "floatBufferViews",
      "target": 34962
    }
  ],
  "buffers": [
    {
      "byteLength": 148464,
      "uri": "scene.bin"
    }
  ],
  "extensionsRequired": [
    "KHR_materials_pbrSpecularGlossiness"
  ],
  "extensionsUsed": [
    "KHR_materials_pbrSpecularGlossiness"
  ],
  "images": [
    {
      "uri": "textures/wallcorn_diffuse.jpeg"
    },
    {
      "uri": "textures/billboard_diffuse.jpeg"
    },
    {
      "uri": "textures/ow_t_diffuse.jpeg"
    },
    {
      "uri": "textures/brid_2.001_diffuse.jpeg"
    },
    {
      "uri": "textures/brid_6_diffuse.jpeg"
    },
    {
      "uri": "textures/beton_1_diffuse.jpeg"
    },
    {
      "uri": "textures/asp_1_diffuse.jpeg"
    },
    {
      "uri": "textures/wall_3_diffuse.jpeg"
    },
    {
      "uri": "textures/wall_2_diffuse.jpeg"
    },
    {
      "uri": "textures/wall_1_diffuse.jpeg"
    },
    {
      "uri": "textures/wtile_1_diffuse.jpeg"
    }
  ],
  "materials": [
    {
      "doubleSided": true,
      "emissiveFactor": [
        0,
        0,
        0
      ],
      "extensions": {
        "KHR_materials_pbrSpecularGlossiness": {
          "diffuseFactor": [
            1,
            1,
            1,
            1
          ],
          "diffuseTexture": {
            "index": 0,
            "texCoord": 0
          },
          "glossinessFactor": 0.40000000000000002,
          "specularFactor": [
            0,
            0,
            0
          ]
        }
      },
      "name": "wallcorn"
    },
    {
      "doubleSided": true,
      "emissiveFactor": [
        0,
        0,
        0
      ],
      "extensions": {
        "KHR_materials_pbrSpecularGlossiness": {
          "diffuseFactor": [
            1,
            1,
            1,
            1
          ],
          "diffuseTexture": {
            "index": 1,
            "texCoord": 0
          },
          "glossinessFactor": 0.40000000000000002,
          "specularFactor": [
            0,
            0,
            0
          ]
        }
      },
      "name": "billboard"
    },
    {
      "doubleSided": true,
      "emissiveFactor": [
        0,
        0,
        0
      ],
      "extensions": {
        "KHR_materials_pbrSpecularGlossiness": {
          "diffuseFactor": [
            1,
            1,
            1,
            1
          ],
          "diffuseTexture": {
            "index": 2,
            "texCoord": 0
          },
          "glossinessFactor": 0.40000000000000002,
          "specularFactor": [
            0,
            0,
            0
          ]
        }
      },
      "name": "ow_t"
    },
    {
      "doubleSided": true,
      "emissiveFactor": [
        0,
        0,
        0
      ],
      "extensions": {
        "KHR_materials_pbrSpecularGlossiness": {
          "diffuseFactor": [
            1,
            1,
            1,
            1
          ],
          "diffuseTexture": {
            "index": 3,
            "texCoord": 0
          },
          "glossinessFactor": 0.40000000000000002,
          "specularFactor": [
            0,
            0,
            0
          ]
        }
      },
      "name": "brid_2.001"
    },
    {
      "doubleSided": true,
      "emissiveFactor": [
        0,
        0,
        0
      ],
      "extensions": {
        "KHR_materials_pbrSpecularGlossiness": {
          "diffuseFactor": [
            1,
            1,
            1,
            1
          ],
          "diffuseTexture": {
            "index": 4,
            "texCoord": 0
          },
          "glossinessFactor": 0.40000000000000002,
          "specularFactor": [
            0,
            0,
            0
          ]
        }
      },
      "name": "brid_6"
    },
    {
      "doubleSided": true,
      "emissiveFactor": [
        0,
        0,
        0
      ],
      "extensions": {
        "KHR_materials_pbrSpecularGlossiness": {
          "diffuseFactor": [
            1,
            1,
            1,
            1
          ],
          "diffuseTexture": {
            "index": 5,
            "texCoord": 0
          },
          "glossinessFactor": 0.40000000000000002,
          "specularFactor": [
            0,
            0,
            0
          ]
        }
      },
      "name": "beton_1"
    },
    {
      "doubleSided": true,
      "emissiveFactor": [
        0,
        0,
        0
      ],
      "extensions": {
        "KHR_materials_pbrSpecularGlossiness": {
          "diffuseFactor": [
            1,
            1,
            1,
            1
          ],
          "diffuseTexture": {
            "index": 6,
            "texCoord": 0
          },
          "glossinessFactor": 0.40000000000000002,
          "specularFactor": [
            0,
            0,
            0
          ]
        }
      },
      "name": "asp_1"
    },
    {
      "doubleSided": true,
      "emissiveFactor": [
        0,
        0,
        0
      ],
      "extensions": {
        "KHR_materials_pbrSpecularGlossiness": {
          "diffuseFactor": [
            1,
            1,
            1,
            1
          ],
          "diffuseTexture": {
            "index": 7,
            "texCoord": 0
          },
          "glossinessFactor": 0.40000000000000002,
          "specularFactor": [
            0,
            0,
            0
          ]
        }
      },
      "name": "wall_3"
    },
    {
      "doubleSided": true,
      "emissiveFactor": [
        0,
        0,
        0
      ],
      "extensions": {
        "KHR_materials_pbrSpecularGlossiness": {
          "diffuseFactor": [
            1,
            1,
            1,
            1
          ],
          "diffuseTexture": {
            "index": 8,
            "texCoord": 0
          },
          "glossinessFactor": 0.40000000000000002,
          "specularFactor": [
            0,
            0,
            0
          ]
        }
      },
      "name": "wall_2"
    },
    {
      "doubleSided": true,
      "emissiveFactor": [
        0,
        0,
        0
      ],
      "extensions": {
        "KHR_materials_pbrSpecularGlossiness": {
          "diffuseFactor": [
            1,
            1,
            1,
            1
          ],
          "diffuseTexture": {
            "index": 9,
            "texCoord": 0
          },
          "glossinessFactor": 0.40000000000000002,
          "specularFactor": [
            0,
            0,
            0
          ]
        }
      },
      "name": "wall_1"
    },
    {
      "doubleSided": true,
      "emissiveFactor": [
        0,
        0,
        0
      ],
      "extensions": {
        "KHR_materials_pbrSpecularGlossiness": {
          "diffuseFactor": [
            1,
            1,
            1,
            1
          ],
          "diffuseTexture": {
            "index": 10,
            "texCoord": 0
          },
          "glossinessFactor": 0.40000000000000002,
          "specularFactor": [
            0,
            0,
            0
          ]
        }
      },
      "name": "wtile_1"
    }
  ],
  "meshes": [
    {
      "name": "map_0",
      "primitives": [
        {
          "attributes": {
            "NORMAL": 1,
            "POSITION": 0,
            "TEXCOORD_0": 2
          },
          "indices": 3,
          "material": 0,
          "mode": 4
        }
      ]
    },
    {
      "name": "map_1",
      "primitives": [
        {
          "attributes": {
            "NORMAL": 5,
            "POSITION": 4,
            "TEXCOORD_0": 6
          },
          "indices": 7,
          "material": 1,
          "mode": 4
        }
      ]
    },
    {
      "name": "map_2",
      "primitives": [
        {
          "attributes": {
            "NORMAL": 9,
            "POSITION": 8,
            "TEXCOORD_0": 10
          },
          "indices": 11,
          "material": 2,
          "mode": 4
        }
      ]
    },
    {
      "name": "map_3",
      "primitives": [
        {
          "attributes": {
            "NORMAL": 13,
            "POSITION": 12,
            "TEXCOORD_0": 14
          },
          "indices": 15,
          "material": 3,
          "mode": 4
        }
      ]
    },
    {
      "name": "map_4",
      "primitives": [
        {
          "attributes": {
            "NORMAL": 17,
            "POSITION": 16,
            "TEXCOORD_0": 18
          },
          "indices": 19,
          "material": 4,
          "mode": 4
        }
      ]
    },
    {
      "name": "map_5",
      "primitives": [
        {
          "attributes": {
            "NORMAL": 21,
            "POSITION": 20,
            "TEXCOORD_0": 22
          },
          "indices": 23,
          "material": 5,
          "mode": 4
        }
      ]
    },
    {
      "name": "map_6",
      "primitives": [
        {
          "attributes": {
            "NORMAL": 25,
            "POSITION": 24,
            "TEXCOORD_0": 26
          },
          "indices": 27,
          "material": 6,
          "mode": 4
        }
      ]
    },
    {
      "name": "map_7",
      "primitives": [
        {
          "attributes": {
            "NORMAL": 29,
            "POSITION": 28,
            "TEXCOORD_0": 30
          },
          "indices": 31,
          "material": 7,
          "mode": 4
        }
      ]
    },
    {
      "name": "map_8",
      "primitives": [
        {
          "attributes": {
            "NORMAL": 33,
            "POSITION": 32,
            "TEXCOORD_0": 34
          },
          "indices": 35,
          "material": 8,
          "mode": 4
        }
      ]
    },
    {
      "name": "map_9",
      "primitives": [
        {
          "attributes": {
            "NORMAL": 37,
            "POSITION": 36,
            "TEXCOORD_0": 38
          },
          "indices": 39,
          "material": 9,
          "mode": 4
        }
      ]
    },
    {
      "name": "map_10",
      "primitives": [
        {
          "attributes": {
            "NORMAL": 41,
            "POSITION": 40,
            "TEXCOORD_0": 42,
            "TEXCOORD_1": 43
          },
          "indices": 44,
          "material": 10,
          "mode": 4
        }
      ]
    }
  ],
  "nodes": [
    {
      "children": [
        1
      ],
      "name": "RootNode (gltf orientation matrix)",
      "rotation": [
        -0.70710678118654746,
        -0,
        -0,
        0.70710678118654757
      ]
    },
    {
      "children": [
        2
      ],
      "name": "RootNode (model correction matrix)"
    },
    {
      "children": [
        3
      ],
      "name": "Root"
    },
    {
      "children": [
        4,
        5,
        6,
        7,
        8,
        9,
        10,
        11,
        12,
        13,
        14
      ],
      "matrix": [
        -0,
        1,
        0,
        0,
        -1,
        -0,
        0,
        0,
        0,
        0,
        1,
        0,
        0,
        0,
        0,
        1
      ],
      "name": "map"
    },
    {
      "mesh": 0,
      "name": "map_0"
    },
    {
      "mesh": 1,
      "name": "map_1"
    },
    {
      "mesh": 2,
      "name": "map_2"
    },
    {
      "mesh": 3,
      "name": "map_3"
    },
    {
      "mesh": 4,
      "name": "map_4"
    },
    {
      "mesh": 5,
      "name": "map_5"
    },
    {
      "mesh": 6,
      "name": "map_6"
    },
    {
      "mesh": 7,
      "name": "map_7"
    },
    {
      "mesh": 8,
      "name": "map_8"
    },
    {
      "mesh": 9,
      "name": "map_9"
    },
    {
      "mesh": 10,
      "name": "map_10"
    }
  ],
  "samplers": [
    {
      "magFilter": 9729,
      "minFilter": 9987,
      "wrapS": 10497,
      "wrapT": 10497
    }
  ],
  "scene": 0,
  "scenes": [
    {
      "name": "OSG_Scene",
      "nodes": [
        0
      ]
    }
  ],
  "textures": [
    {
      "sampler": 0,
      "source": 0
    },
    {
      "sampler": 0,
      "source": 1
    },
    {
      "sampler": 0,
      "source": 2
    },
    {
      "sampler": 0,
      "source": 3
    },
    {
      "sampler": 0,
      "source": 4
    },
    {
      "sampler": 0,
      "source": 5
    },
    {
      "sampler": 0,
      "source": 6
    },
    {
      "sampler": 0,
      "source": 7
    },
    {
      "sampler": 0,
      "source": 8
    },
    {
      "sampler": 0,
      "source": 9
    },
    {
      "sampler": 0,
      "source": 10
    }
  ]
}

